<svg width="134" height="93" viewBox="0 0 134 93" fill="none" xmlns="http://www.w3.org/2000/svg">
<path d="M0.0568848 0.476562V8.84446H79.5519V71.6037H53.7944C51.9313 64.4125 45.4592 59.0518 37.7124 59.0518C29.9656 59.0518 23.4935 64.4125 21.6304 71.6037H16.7927V50.6839H8.42478V79.9715H21.6304C23.4935 87.1627 29.9656 92.5234 37.7124 92.5234C45.4592 92.5234 51.9313 87.1627 53.7944 79.9715H88.5735C90.4367 87.1627 96.9087 92.5234 104.656 92.5234C112.402 92.5234 118.874 87.1627 120.738 79.9715H133.943V45.8462L133.682 45.1925L125.314 20.0888L124.399 17.2123H87.9198V0.476562H0.0568848ZM4.24083 17.2123V25.5802H41.8964V17.2123H4.24083ZM87.9198 25.5802H118.384L125.575 47.023V71.6037H120.738C118.874 64.4125 112.402 59.0518 104.656 59.0518C96.9087 59.0518 90.4367 64.4125 88.5735 71.6037H87.9198V25.5802ZM8.42478 33.9481V42.316H33.5285V33.9481H8.42478ZM37.7124 67.4197C42.3867 67.4197 46.0803 71.1133 46.0803 75.7876C46.0803 80.4619 42.3867 84.1555 37.7124 84.1555C33.0382 84.1555 29.3445 80.4619 29.3445 75.7876C29.3445 71.1133 33.0382 67.4197 37.7124 67.4197ZM104.656 67.4197C109.33 67.4197 113.023 71.1133 113.023 75.7876C113.023 80.4619 109.33 84.1555 104.656 84.1555C99.9813 84.1555 96.2877 80.4619 96.2877 75.7876C96.2877 71.1133 99.9813 67.4197 104.656 67.4197Z" fill="#FF7B2B"/>
</svg>
