<svg width="118" height="27" viewBox="0 0 118 27" fill="none" xmlns="http://www.w3.org/2000/svg">
<path d="M1.3616 26V8.3536H6.4784V26H1.3616ZM3.92 5.8936C2.97973 5.8936 2.2144 5.62027 1.624 5.0736C1.0336 4.52693 0.7384 3.84907 0.7384 3.04C0.7384 2.23093 1.0336 1.55307 1.624 1.0064C2.2144 0.459732 2.97973 0.186399 3.92 0.186399C4.86027 0.186399 5.6256 0.448799 6.216 0.9736C6.8064 1.47653 7.1016 2.13253 7.1016 2.9416C7.1016 3.7944 6.8064 4.50507 6.216 5.0736C5.64747 5.62027 4.88213 5.8936 3.92 5.8936ZM19.7552 26.2624C17.6779 26.2624 16.0598 25.7376 14.9008 24.688C13.7419 23.6165 13.1624 22.0312 13.1624 19.932V4.4504H18.2792V19.8664C18.2792 20.6099 18.476 21.1893 18.8696 21.6048C19.2632 21.9984 19.799 22.1952 20.4768 22.1952C21.2859 22.1952 21.9747 21.9765 22.5432 21.5392L23.9208 25.1472C23.396 25.5189 22.7619 25.8032 22.0184 26C21.2968 26.1749 20.5424 26.2624 19.7552 26.2624ZM10.44 12.6832V8.7472H22.6744V12.6832H10.44ZM28.1051 26V8.3536H32.9923V13.3392L32.3035 11.896C32.8283 10.6496 33.6702 9.70933 34.8291 9.0752C35.9881 8.4192 37.3985 8.0912 39.0603 8.0912V12.8144C38.8417 12.7925 38.6449 12.7816 38.4699 12.7816C38.295 12.7597 38.1091 12.7488 37.9123 12.7488C36.5129 12.7488 35.3758 13.1533 34.5011 13.9624C33.6483 14.7496 33.2219 15.9851 33.2219 17.6688V26H28.1051ZM51.6514 26.2624C49.7709 26.2624 48.0981 25.8688 46.633 25.0816C45.1898 24.2944 44.0418 23.2229 43.189 21.8672C42.3581 20.4896 41.9426 18.9261 41.9426 17.1768C41.9426 15.4056 42.3581 13.8421 43.189 12.4864C44.0418 11.1088 45.1898 10.0373 46.633 9.272C48.0981 8.4848 49.7709 8.0912 51.6514 8.0912C53.5101 8.0912 55.172 8.4848 56.637 9.272C58.1021 10.0373 59.2501 11.0979 60.081 12.4536C60.912 13.8093 61.3274 15.3837 61.3274 17.1768C61.3274 18.9261 60.912 20.4896 60.081 21.8672C59.2501 23.2229 58.1021 24.2944 56.637 25.0816C55.172 25.8688 53.5101 26.2624 51.6514 26.2624ZM51.6514 22.064C52.5042 22.064 53.2696 21.8672 53.9474 21.4736C54.6253 21.08 55.161 20.5224 55.5546 19.8008C55.9482 19.0573 56.145 18.1827 56.145 17.1768C56.145 16.1491 55.9482 15.2744 55.5546 14.5528C55.161 13.8312 54.6253 13.2736 53.9474 12.88C53.2696 12.4864 52.5042 12.2896 51.6514 12.2896C50.7986 12.2896 50.0333 12.4864 49.3554 12.88C48.6776 13.2736 48.1309 13.8312 47.7154 14.5528C47.3218 15.2744 47.125 16.1491 47.125 17.1768C47.125 18.1827 47.3218 19.0573 47.7154 19.8008C48.1309 20.5224 48.6776 21.08 49.3554 21.4736C50.0333 21.8672 50.7986 22.064 51.6514 22.064ZM76.7852 8.0912C78.1847 8.0912 79.4311 8.37547 80.5244 8.944C81.6396 9.49067 82.5143 10.3435 83.1484 11.5024C83.7825 12.6395 84.0996 14.1045 84.0996 15.8976V26H78.9828V16.6848C78.9828 15.2635 78.6657 14.2139 78.0316 13.536C77.4193 12.8581 76.5447 12.5192 75.4076 12.5192C74.5985 12.5192 73.866 12.6941 73.21 13.044C72.5759 13.372 72.0729 13.8859 71.7012 14.5856C71.3513 15.2853 71.1764 16.1819 71.1764 17.2752V26H66.0596V8.3536H70.9468V13.2408L70.0284 11.7648C70.6625 10.584 71.57 9.67653 72.7508 9.0424C73.9316 8.40827 75.2764 8.0912 76.7852 8.0912ZM90.0497 26V8.3536H95.1665V26H90.0497ZM92.6081 5.8936C91.6679 5.8936 90.9025 5.62027 90.3121 5.0736C89.7217 4.52693 89.4265 3.84907 89.4265 3.04C89.4265 2.23093 89.7217 1.55307 90.3121 1.0064C90.9025 0.459732 91.6679 0.186399 92.6081 0.186399C93.5484 0.186399 94.3137 0.448799 94.9041 0.9736C95.4945 1.47653 95.7897 2.13253 95.7897 2.9416C95.7897 3.7944 95.4945 4.50507 94.9041 5.0736C94.3356 5.62027 93.5703 5.8936 92.6081 5.8936ZM109.755 26.2624C107.853 26.2624 106.158 25.8797 104.671 25.1144C103.184 24.3272 102.015 23.2448 101.162 21.8672C100.331 20.4896 99.9153 18.9261 99.9153 17.1768C99.9153 15.4056 100.331 13.8421 101.162 12.4864C102.015 11.1088 103.184 10.0373 104.671 9.272C106.158 8.4848 107.853 8.0912 109.755 8.0912C111.614 8.0912 113.232 8.4848 114.61 9.272C115.987 10.0373 117.004 11.1416 117.66 12.5848L113.691 14.7168C113.232 13.8859 112.653 13.2736 111.953 12.88C111.275 12.4864 110.532 12.2896 109.723 12.2896C108.848 12.2896 108.061 12.4864 107.361 12.88C106.661 13.2736 106.104 13.8312 105.688 14.5528C105.295 15.2744 105.098 16.1491 105.098 17.1768C105.098 18.2045 105.295 19.0792 105.688 19.8008C106.104 20.5224 106.661 21.08 107.361 21.4736C108.061 21.8672 108.848 22.064 109.723 22.064C110.532 22.064 111.275 21.8781 111.953 21.5064C112.653 21.1128 113.232 20.4896 113.691 19.6368L117.66 21.8016C117.004 23.2229 115.987 24.3272 114.61 25.1144C113.232 25.8797 111.614 26.2624 109.755 26.2624Z" fill="white"/>
</svg>
