<svg width="144" height="128" viewBox="0 0 144 128" fill="none" xmlns="http://www.w3.org/2000/svg">
<path d="M138.984 98.8022H5.576" stroke="#FF7B2B" stroke-width="10" stroke-miterlimit="10" stroke-linecap="round" stroke-linejoin="round"/>
<path d="M138.984 122.004H5.576" stroke="#FF7B2B" stroke-width="10" stroke-miterlimit="10" stroke-linecap="round" stroke-linejoin="round"/>
<path d="M63.0006 72.5428C52.9436 72.5428 44.7907 64.3899 44.7907 54.3329V24.2074C44.7907 14.1504 52.9436 5.99658 63.0006 5.99658C73.0587 5.99658 81.2114 14.1504 81.2114 24.2074V54.3329C81.2114 64.3899 73.0584 72.5428 63.0006 72.5428Z" stroke="#FF7B2B" stroke-width="10" stroke-miterlimit="10" stroke-linecap="round" stroke-linejoin="round"/>
<path d="M120.789 72.5428C110.732 72.5428 102.579 64.3899 102.579 54.3329V24.2074C102.579 14.1504 110.732 5.99658 120.789 5.99658C130.847 5.99658 139 14.1504 139 24.2074V54.3329C139 64.3899 130.847 72.5428 120.789 72.5428Z" stroke="#FF7B2B" stroke-width="10" stroke-miterlimit="10" stroke-linecap="round" stroke-linejoin="round"/>
<path d="M5 19.993L23.4228 6.19141V72.7377" stroke="#FF7B2B" stroke-width="10" stroke-miterlimit="10" stroke-linecap="round" stroke-linejoin="round"/>
</svg>
