<svg width="172" height="172" viewBox="0 0 172 172" fill="none" xmlns="http://www.w3.org/2000/svg">
<path d="M86.0001 51.5999C80.1521 51.5999 52.6321 55.9859 51.6861 84.9679C66.4781 81.5279 78.0021 69.7459 80.9261 54.7819C85.4841 64.6719 97.7821 78.8619 119.024 77.1419C115.154 62.4359 101.91 51.5999 86.0001 51.5999Z" fill="#FF7B2B"/>
<path d="M64.5 98.8998C68.0622 98.8998 70.95 96.012 70.95 92.4498C70.95 88.8875 68.0622 85.9998 64.5 85.9998C60.9378 85.9998 58.05 88.8875 58.05 92.4498C58.05 96.012 60.9378 98.8998 64.5 98.8998Z" fill="#FF7B2B"/>
<path d="M107.5 98.8998C111.062 98.8998 113.95 96.012 113.95 92.4498C113.95 88.8875 111.062 85.9998 107.5 85.9998C103.938 85.9998 101.05 88.8875 101.05 92.4498C101.05 96.012 103.938 98.8998 107.5 98.8998Z" fill="#FF7B2B"/>
<path d="M137.6 85.9999C137.6 57.5339 114.466 34.3999 86 34.3999C57.534 34.3999 34.4 57.5339 34.4 85.9999C29.67 85.9999 25.8 89.8699 25.8 94.5999V111.8C25.8 116.53 29.67 120.4 34.4 120.4H43V85.9999C43 62.2639 62.264 42.9999 86 42.9999C109.736 42.9999 129 62.2639 129 85.9999V129H77.4V137.6H129C133.73 137.6 137.6 133.73 137.6 129V120.4C142.33 120.4 146.2 116.53 146.2 111.8V94.5999C146.2 89.8699 142.33 85.9999 137.6 85.9999Z" fill="#FF7B2B"/>
</svg>
